<?xml version="1.0" encoding="UTF-8"?><svg id="a" xmlns="http://www.w3.org/2000/svg" viewBox="0 0 1080 1080"><defs><style>.b{fill:#834a8b;}.c{fill:#242545;}</style></defs><g><path class="c" d="M158.81,355.41l33.88,21.91v21.16l.06,.94,2.39,35.45,.14,2.11,.46,2.07,23.94,107.74H97.58l23.94-107.74,.46-2.07,.14-2.11,2.39-35.45,.06-.94v-21.1l34.23-21.97m.06-33.28l-62.26,39.97v35.45l-2.39,35.45-31.5,141.79H254.56l-31.5-141.79-2.39-35.45v-35.45l-61.8-39.97h0Z"/><rect class="c" x="62.94" y="408.39" width="191.86" height="27.98"/></g><path class="b" d="M310.08,316.28v21.74l-26.95,15.11,26.95,15.21v21.54l-50.02-27.76v-18.17l50.02-27.66Z"/><path class="c" d="M644.24,470.94c-4.97-5.2-7.45-12.81-7.45-22.81v-40.85h5.17v40.65c0,8.72,1.99,15.24,5.98,19.57,3.99,4.33,9.77,6.49,17.33,6.49s13.25-2.16,17.23-6.49c3.99-4.32,5.98-10.85,5.98-19.57v-40.65h5.17v40.85c0,10-2.5,17.61-7.5,22.81-5,5.21-12,7.81-20.98,7.81s-15.97-2.6-20.93-7.81Z"/><path class="c" d="M775.57,407.27v70.96h-4.26l-48.36-61.64v61.64h-5.17v-70.96h4.36l48.25,61.64v-61.64h5.17Z"/><path class="c" d="M800.3,407.27h28.08c7.37,0,13.9,1.52,19.62,4.56,5.71,3.04,10.15,7.25,13.33,12.62,3.18,5.37,4.76,11.47,4.76,18.3s-1.59,12.93-4.76,18.3c-3.18,5.37-7.62,9.58-13.33,12.62-5.71,3.04-12.25,4.56-19.62,4.56h-28.08v-70.96Zm27.68,66.3c6.55,0,12.33-1.3,17.33-3.9,5-2.6,8.85-6.23,11.56-10.9,2.7-4.66,4.05-10,4.05-16.02s-1.35-11.35-4.05-16.02c-2.7-4.66-6.56-8.3-11.56-10.9-5-2.6-10.78-3.9-17.33-3.9h-22.51v61.64h22.51Z"/><path class="c" d="M933,473.57v4.66h-48.96v-70.96h47.44v4.66h-42.27v27.98h37.81v4.56h-37.81v29.09h43.79Z"/><path class="c" d="M1001.12,478.23l-16.93-23.72c-2.5,.34-4.8,.51-6.89,.51h-20.28v23.21h-5.17v-70.96h25.45c8.92,0,15.92,2.11,20.98,6.34,5.07,4.22,7.6,10.09,7.6,17.59,0,5.61-1.44,10.32-4.31,14.14-2.87,3.82-6.98,6.5-12.32,8.06l17.74,24.84h-5.88Zm-23.82-27.78c7.57,0,13.35-1.67,17.33-5.02,3.99-3.35,5.98-8.09,5.98-14.24s-1.99-10.9-5.98-14.24c-3.99-3.35-9.77-5.02-17.33-5.02h-20.28v38.52h20.28Z"/><path class="c" d="M364.3,505.68c4.63,2.09,8.19,5.07,10.7,8.92,2.5,3.85,3.75,8.41,3.75,13.69s-1.25,9.75-3.75,13.63c-2.5,3.89-6.07,6.86-10.7,8.92-4.63,2.06-10.09,3.09-16.37,3.09h-14.29v19.56h-16.42v-70.96h30.72c6.28,0,11.74,1.05,16.37,3.14Zm-6.03,31.68c2.57-2.13,3.85-5.15,3.85-9.07s-1.28-7.05-3.85-9.17c-2.57-2.13-6.32-3.19-11.25-3.19h-13.38v24.63h13.38c4.93,0,8.68-1.06,11.25-3.19Z"/><path class="c" d="M435.62,573.5l-13.69-19.77h-15.11v19.77h-16.42v-70.96h30.72c6.29,0,11.74,1.05,16.37,3.14,4.63,2.09,8.19,5.07,10.7,8.92,2.5,3.85,3.75,8.41,3.75,13.69s-1.27,9.82-3.8,13.63c-2.53,3.82-6.13,6.74-10.8,8.77l15.92,22.81h-17.64Zm-4.16-54.39c-2.57-2.13-6.32-3.19-11.25-3.19h-13.38v24.74h13.38c4.93,0,8.68-1.08,11.25-3.24,2.57-2.16,3.85-5.2,3.85-9.12s-1.28-7.05-3.85-9.17Z"/><path class="c" d="M479.36,569.95c-5.91-3.18-10.54-7.55-13.89-13.13-3.35-5.58-5.02-11.84-5.02-18.8s1.67-13.23,5.02-18.8c3.35-5.58,7.97-9.95,13.89-13.13,5.91-3.18,12.55-4.76,19.92-4.76s13.99,1.59,19.87,4.76c5.88,3.18,10.51,7.55,13.89,13.13,3.38,5.58,5.07,11.85,5.07,18.8s-1.69,13.23-5.07,18.8c-3.38,5.58-8.01,9.95-13.89,13.13-5.88,3.18-12.5,4.76-19.87,4.76s-14.01-1.59-19.92-4.76Zm31.27-12.11c3.38-1.93,6.03-4.61,7.96-8.06,1.93-3.45,2.89-7.37,2.89-11.76s-.96-8.31-2.89-11.76c-1.93-3.45-4.58-6.13-7.96-8.06-3.38-1.93-7.16-2.89-11.35-2.89s-7.98,.96-11.35,2.89c-3.38,1.93-6.03,4.61-7.96,8.06-1.93,3.45-2.89,7.37-2.89,11.76s.96,8.31,2.89,11.76c1.93,3.45,4.58,6.13,7.96,8.06,3.38,1.93,7.16,2.89,11.35,2.89s7.97-.96,11.35-2.89Z"/><path class="c" d="M694.27,570c-5.85-3.14-10.44-7.5-13.79-13.08-3.35-5.58-5.02-11.88-5.02-18.91s1.67-13.33,5.02-18.91c3.35-5.58,7.94-9.93,13.79-13.08,5.85-3.14,12.42-4.71,19.72-4.71,6.15,0,11.71,1.08,16.68,3.24,4.97,2.16,9.14,5.27,12.52,9.33l-10.54,9.73c-4.8-5.54-10.75-8.31-17.84-8.31-4.39,0-8.31,.96-11.76,2.89-3.45,1.93-6.13,4.61-8.06,8.06-1.93,3.45-2.89,7.37-2.89,11.76s.96,8.31,2.89,11.76c1.93,3.45,4.61,6.13,8.06,8.06,3.45,1.93,7.37,2.89,11.76,2.89,7.1,0,13.04-2.8,17.84-8.41l10.54,9.73c-3.38,4.12-7.57,7.27-12.57,9.43-5,2.16-10.58,3.24-16.73,3.24-7.23,0-13.77-1.57-19.62-4.71Z"/><path class="b" d="M870.53,569.95c-5.91-3.18-10.54-7.55-13.89-13.13-3.35-5.58-5.02-11.84-5.02-18.8s1.67-13.23,5.02-18.8c3.35-5.58,7.97-9.95,13.89-13.13,5.91-3.18,12.55-4.76,19.92-4.76s13.99,1.59,19.87,4.76c5.88,3.18,10.51,7.55,13.89,13.13,3.38,5.58,5.07,11.85,5.07,18.8s-1.69,13.23-5.07,18.8c-3.38,5.58-8.01,9.95-13.89,13.13-5.88,3.18-12.5,4.76-19.87,4.76s-14.01-1.59-19.92-4.76Zm31.27-12.11c3.38-1.93,6.03-4.61,7.96-8.06,1.93-3.45,2.89-7.37,2.89-11.76s-.96-8.31-2.89-11.76c-1.93-3.45-4.58-6.13-7.96-8.06-3.38-1.93-7.16-2.89-11.35-2.89s-7.98,.96-11.35,2.89c-3.38,1.93-6.03,4.61-7.96,8.06-1.93,3.45-2.89,7.37-2.89,11.76s.96,8.31,2.89,11.76c1.93,3.45,4.58,6.13,7.96,8.06,3.38,1.93,7.16,2.89,11.35,2.89s7.97-.96,11.35-2.89Z"/><path class="c" d="M1006.72,502.53v70.96h-13.48l-35.38-43.08v43.08h-16.22v-70.96h13.58l35.28,43.08v-43.08h16.22Z"/><path class="c" d="M564.16,515.92h-22.71v-13.38h125.6v13.38h-86.47v57.58h-16.42v-57.58Z"/><path class="c" d="M628.43,522.37v8.75h32.95v12.77h-32.95v16.42h38.62v13.18h-54.94v-50.92"/><path class="c" d="M774.88,515.92h-22.71v-13.38h87.15v13.38h-48.02v57.58h-16.42v-57.58Z"/><path class="c" d="M822.83,522.37h16.42v51.12h-16.42v-51.12Z"/><g><path class="c" d="M391.28,600.8h3.78v35.77h-3.78v-35.77Z"/><path class="c" d="M427.68,612.43c1.99,1.96,2.99,4.81,2.99,8.56v15.58h-3.63v-15.23c0-2.79-.7-4.92-2.09-6.39-1.4-1.46-3.39-2.2-5.98-2.2-2.9,0-5.19,.86-6.87,2.58-1.69,1.72-2.53,4.1-2.53,7.13v14.1h-3.63v-26.88h3.47v4.96c.99-1.63,2.36-2.9,4.11-3.81,1.75-.9,3.79-1.35,6.11-1.35,3.37,0,6.05,.98,8.05,2.94Z"/><path class="c" d="M441.48,635.88c-1.99-.63-3.55-1.42-4.68-2.38l1.63-2.86c1.12,.89,2.54,1.61,4.24,2.17,1.7,.56,3.47,.84,5.31,.84,2.45,0,4.27-.38,5.44-1.15,1.18-.77,1.76-1.85,1.76-3.24,0-.99-.32-1.76-.97-2.32-.65-.56-1.47-.99-2.45-1.28-.99-.29-2.3-.57-3.93-.84-2.18-.41-3.93-.83-5.26-1.25-1.33-.43-2.46-1.15-3.4-2.17-.94-1.02-1.41-2.44-1.41-4.24,0-2.25,.94-4.09,2.81-5.52,1.87-1.43,4.48-2.15,7.82-2.15,1.74,0,3.47,.23,5.21,.69,1.74,.46,3.17,1.07,4.29,1.81l-1.58,2.91c-2.21-1.53-4.85-2.3-7.92-2.3-2.32,0-4.06,.41-5.24,1.23-1.18,.82-1.76,1.89-1.76,3.22,0,1.02,.33,1.84,1,2.45,.66,.61,1.49,1.07,2.48,1.35,.99,.29,2.35,.59,4.09,.89,2.15,.41,3.87,.82,5.16,1.23,1.29,.41,2.4,1.11,3.32,2.1,.92,.99,1.38,2.35,1.38,4.09,0,2.35-.98,4.22-2.94,5.6-1.96,1.38-4.68,2.07-8.15,2.07-2.18,0-4.27-.31-6.26-.95Z"/><path class="c" d="M486.21,611.2c2.04,1.14,3.64,2.75,4.8,4.83,1.16,2.08,1.74,4.45,1.74,7.1s-.58,5.08-1.74,7.15c-1.16,2.08-2.75,3.69-4.78,4.83-2.03,1.14-4.32,1.71-6.87,1.71-2.18,0-4.15-.45-5.9-1.35-1.75-.9-3.19-2.22-4.32-3.96v14.97h-3.63v-36.79h3.47v5.31c1.09-1.77,2.53-3.13,4.32-4.09,1.79-.95,3.81-1.43,6.05-1.43,2.52,0,4.8,.57,6.85,1.71Zm-1.99,21.1c1.53-.87,2.73-2.1,3.6-3.7,.87-1.6,1.3-3.42,1.3-5.47s-.43-3.86-1.3-5.44c-.87-1.58-2.07-2.82-3.6-3.7-1.53-.89-3.24-1.33-5.11-1.33s-3.62,.44-5.14,1.33c-1.52,.89-2.71,2.12-3.58,3.7-.87,1.58-1.3,3.4-1.3,5.44s.43,3.87,1.3,5.47c.87,1.6,2.06,2.84,3.58,3.7,1.52,.87,3.23,1.3,5.14,1.3s3.58-.43,5.11-1.3Z"/><path class="c" d="M500.11,603.05c-.51-.51-.77-1.12-.77-1.84s.26-1.28,.77-1.79c.51-.51,1.14-.77,1.89-.77s1.38,.25,1.89,.74c.51,.49,.77,1.08,.77,1.76,0,.75-.26,1.38-.77,1.89-.51,.51-1.14,.77-1.89,.77s-1.38-.26-1.89-.77Zm.05,6.64h3.63v26.88h-3.63v-26.88Z"/><path class="c" d="M521.19,610.87c1.69-.92,3.77-1.38,6.26-1.38v3.53l-.87-.05c-2.83,0-5.04,.87-6.64,2.61-1.6,1.74-2.4,4.17-2.4,7.31v13.69h-3.63v-26.88h3.47v5.26c.85-1.81,2.12-3.17,3.81-4.09Z"/><path class="c" d="M551.41,612.12c1.87,1.75,2.81,4.35,2.81,7.79v16.66h-3.47v-4.19c-.82,1.4-2.02,2.49-3.6,3.27-1.58,.78-3.47,1.18-5.65,1.18-3,0-5.38-.72-7.15-2.15-1.77-1.43-2.66-3.32-2.66-5.67s.83-4.12,2.48-5.52c1.65-1.4,4.28-2.09,7.89-2.09h8.53v-1.64c0-2.32-.65-4.08-1.94-5.29-1.29-1.21-3.19-1.81-5.67-1.81-1.7,0-3.34,.28-4.91,.84-1.57,.56-2.91,1.34-4.04,2.33l-1.63-2.71c1.36-1.16,3-2.05,4.91-2.68,1.91-.63,3.92-.95,6.03-.95,3.51,0,6.2,.88,8.07,2.63Zm-4.09,20.44c1.46-.94,2.55-2.29,3.27-4.06v-4.39h-8.43c-4.6,0-6.9,1.6-6.9,4.8,0,1.57,.6,2.8,1.79,3.7,1.19,.9,2.86,1.35,5.01,1.35s3.8-.47,5.26-1.4Z"/><path class="c" d="M585.82,612.43c1.99,1.96,2.99,4.81,2.99,8.56v15.58h-3.63v-15.23c0-2.79-.7-4.92-2.1-6.39-1.4-1.46-3.39-2.2-5.98-2.2-2.9,0-5.19,.86-6.87,2.58-1.69,1.72-2.53,4.1-2.53,7.13v14.1h-3.63v-26.88h3.47v4.96c.99-1.63,2.36-2.9,4.11-3.81,1.75-.9,3.79-1.35,6.11-1.35,3.37,0,6.05,.98,8.05,2.94Z"/><path class="c" d="M623.3,598.66v37.91h-3.47v-5.31c-1.09,1.81-2.53,3.19-4.32,4.14-1.79,.95-3.81,1.43-6.06,1.43-2.52,0-4.8-.58-6.85-1.74-2.04-1.16-3.65-2.78-4.8-4.85-1.16-2.08-1.74-4.45-1.74-7.1s.58-5.02,1.74-7.1c1.16-2.08,2.76-3.69,4.8-4.83,2.04-1.14,4.33-1.71,6.85-1.71,2.18,0,4.15,.45,5.9,1.35,1.75,.9,3.19,2.22,4.32,3.96v-16.15h3.63Zm-8.46,33.65c1.52-.87,2.71-2.1,3.58-3.7,.87-1.6,1.3-3.42,1.3-5.47s-.43-3.87-1.3-5.47c-.87-1.6-2.06-2.84-3.58-3.7-1.52-.87-3.21-1.3-5.08-1.3s-3.62,.43-5.14,1.3c-1.52,.87-2.71,2.1-3.58,3.7-.87,1.6-1.3,3.42-1.3,5.47s.43,3.87,1.3,5.47c.87,1.6,2.06,2.84,3.58,3.7,1.52,.87,3.23,1.3,5.14,1.3s3.57-.43,5.08-1.3Z"/><path class="c" d="M637.4,635.06c-2.08-1.18-3.71-2.8-4.91-4.88-1.19-2.08-1.79-4.43-1.79-7.05s.6-4.97,1.79-7.05c1.19-2.08,2.83-3.7,4.91-4.85,2.08-1.16,4.41-1.74,7-1.74s4.92,.58,7,1.74c2.08,1.16,3.7,2.78,4.88,4.85,1.18,2.08,1.76,4.43,1.76,7.05s-.59,4.97-1.76,7.05c-1.18,2.08-2.8,3.7-4.88,4.88-2.08,1.18-4.41,1.76-7,1.76s-4.92-.59-7-1.76Zm12.14-2.76c1.52-.87,2.7-2.1,3.55-3.7,.85-1.6,1.28-3.42,1.28-5.47s-.43-3.87-1.28-5.47c-.85-1.6-2.04-2.84-3.55-3.7-1.52-.87-3.23-1.3-5.14-1.3s-3.62,.43-5.14,1.3c-1.52,.87-2.71,2.1-3.58,3.7-.87,1.6-1.3,3.42-1.3,5.47s.43,3.87,1.3,5.47c.87,1.6,2.06,2.84,3.58,3.7,1.52,.87,3.23,1.3,5.14,1.3s3.62-.43,5.14-1.3Z"/><path class="c" d="M685.56,634.52c-2.85-1.57-5.08-3.74-6.69-6.52-1.62-2.78-2.43-5.88-2.43-9.33s.81-6.55,2.43-9.33c1.62-2.78,3.86-4.95,6.72-6.51,2.86-1.57,6.06-2.35,9.61-2.35,2.66,0,5.11,.44,7.36,1.33,2.25,.89,4.16,2.18,5.72,3.88l-2.4,2.4c-2.79-2.83-6.32-4.24-10.58-4.24-2.83,0-5.4,.65-7.72,1.94-2.32,1.3-4.13,3.07-5.44,5.31-1.31,2.25-1.97,4.77-1.97,7.56s.66,5.31,1.97,7.56c1.31,2.25,3.12,4.02,5.44,5.31,2.32,1.29,4.89,1.94,7.72,1.94,4.29,0,7.82-1.43,10.58-4.29l2.4,2.4c-1.57,1.7-3.48,3.01-5.75,3.91-2.27,.9-4.73,1.35-7.38,1.35-3.54,0-6.74-.78-9.58-2.35Z"/><path class="c" d="M718.39,635.06c-2.08-1.18-3.71-2.8-4.91-4.88-1.19-2.08-1.79-4.43-1.79-7.05s.6-4.97,1.79-7.05c1.19-2.08,2.83-3.7,4.91-4.85,2.08-1.16,4.41-1.74,7-1.74s4.92,.58,7,1.74c2.08,1.16,3.7,2.78,4.88,4.85,1.18,2.08,1.76,4.43,1.76,7.05s-.59,4.97-1.76,7.05c-1.18,2.08-2.8,3.7-4.88,4.88-2.08,1.18-4.41,1.76-7,1.76s-4.92-.59-7-1.76Zm12.14-2.76c1.52-.87,2.7-2.1,3.55-3.7,.85-1.6,1.28-3.42,1.28-5.47s-.43-3.87-1.28-5.47c-.85-1.6-2.04-2.84-3.55-3.7-1.52-.87-3.23-1.3-5.14-1.3s-3.62,.43-5.14,1.3c-1.52,.87-2.71,2.1-3.58,3.7-.87,1.6-1.3,3.42-1.3,5.47s.43,3.87,1.3,5.47c.87,1.6,2.06,2.84,3.58,3.7,1.52,.87,3.23,1.3,5.14,1.3s3.62-.43,5.14-1.3Z"/><path class="c" d="M768.18,612.43c1.99,1.96,2.99,4.81,2.99,8.56v15.58h-3.63v-15.23c0-2.79-.7-4.92-2.1-6.39-1.4-1.46-3.39-2.2-5.98-2.2-2.9,0-5.19,.86-6.87,2.58-1.69,1.72-2.53,4.1-2.53,7.13v14.1h-3.63v-26.88h3.47v4.96c.99-1.63,2.36-2.9,4.11-3.81,1.75-.9,3.79-1.35,6.11-1.35,3.37,0,6.05,.98,8.05,2.94Z"/><path class="c" d="M786.37,602.74c-.8,.85-1.2,2.11-1.2,3.78v3.17h8.28v3.07h-8.18v23.81h-3.63v-23.81h-4.8v-3.07h4.8v-3.32c0-2.45,.71-4.39,2.12-5.83,1.41-1.43,3.41-2.15,6-2.15,1.02,0,2.01,.15,2.96,.43,.95,.29,1.75,.71,2.4,1.25l-1.23,2.71c-1.06-.89-2.38-1.33-3.99-1.33s-2.75,.43-3.55,1.28Zm16.02,.31c-.51-.51-.77-1.12-.77-1.84s.26-1.28,.77-1.79c.51-.51,1.14-.77,1.89-.77s1.38,.25,1.89,.74c.51,.49,.77,1.08,.77,1.76,0,.75-.26,1.38-.77,1.89-.51,.51-1.14,.77-1.89,.77s-1.38-.26-1.89-.77Zm.05,6.64h3.63v26.88h-3.63v-26.88Z"/><path class="c" d="M833.66,612.12c1.87,1.75,2.81,4.35,2.81,7.79v16.66h-3.47v-4.19c-.82,1.4-2.02,2.49-3.6,3.27-1.58,.78-3.47,1.18-5.65,1.18-3,0-5.38-.72-7.15-2.15-1.77-1.43-2.66-3.32-2.66-5.67s.83-4.12,2.48-5.52c1.65-1.4,4.28-2.09,7.89-2.09h8.53v-1.64c0-2.32-.65-4.08-1.94-5.29-1.29-1.21-3.19-1.81-5.67-1.81-1.7,0-3.34,.28-4.91,.84-1.57,.56-2.91,1.34-4.04,2.33l-1.63-2.71c1.36-1.16,3-2.05,4.91-2.68,1.91-.63,3.92-.95,6.03-.95,3.51,0,6.2,.88,8.07,2.63Zm-4.09,20.44c1.46-.94,2.55-2.29,3.27-4.06v-4.39h-8.43c-4.6,0-6.9,1.6-6.9,4.8,0,1.57,.6,2.8,1.79,3.7,1.19,.9,2.86,1.35,5.01,1.35s3.8-.47,5.26-1.4Z"/><path class="c" d="M868.07,612.43c1.99,1.96,2.99,4.81,2.99,8.56v15.58h-3.63v-15.23c0-2.79-.7-4.92-2.1-6.39-1.4-1.46-3.39-2.2-5.98-2.2-2.9,0-5.19,.86-6.87,2.58-1.69,1.72-2.53,4.1-2.53,7.13v14.1h-3.63v-26.88h3.47v4.96c.99-1.63,2.36-2.9,4.11-3.81,1.75-.9,3.79-1.35,6.11-1.35,3.37,0,6.05,.98,8.05,2.94Z"/><path class="c" d="M885.04,635.09c-2.1-1.16-3.74-2.78-4.93-4.88-1.19-2.1-1.79-4.45-1.79-7.08s.6-4.97,1.79-7.05c1.19-2.08,2.84-3.7,4.93-4.85,2.09-1.16,4.47-1.74,7.13-1.74,2.32,0,4.39,.45,6.21,1.35,1.82,.9,3.26,2.22,4.32,3.96l-2.71,1.84c-.89-1.33-2.01-2.33-3.37-2.99-1.36-.66-2.84-1-4.45-1-1.94,0-3.69,.43-5.24,1.3-1.55,.87-2.76,2.1-3.63,3.7-.87,1.6-1.3,3.42-1.3,5.47s.43,3.91,1.3,5.49c.87,1.58,2.08,2.81,3.63,3.68,1.55,.87,3.3,1.3,5.24,1.3,1.6,0,3.08-.32,4.45-.97,1.36-.65,2.49-1.63,3.37-2.96l2.71,1.84c-1.06,1.74-2.5,3.06-4.34,3.96-1.84,.9-3.9,1.35-6.18,1.35-2.66,0-5.03-.58-7.13-1.74Zm.69,11.55l.87-1.94c.99,.65,2.11,.97,3.37,.97,1.02,0,1.81-.2,2.35-.61,.54-.41,.82-1.01,.82-1.79,0-.72-.26-1.29-.79-1.71-.53-.43-1.32-.64-2.38-.64h-1.18l1.23-4.65h2.2l-.77,2.96c1.4,.14,2.47,.57,3.22,1.3,.75,.73,1.12,1.68,1.12,2.84,0,1.36-.53,2.44-1.58,3.24-1.06,.8-2.45,1.2-4.19,1.2s-3.1-.39-4.29-1.18Z"/><path class="c" d="M927.27,612.12c1.87,1.75,2.81,4.35,2.81,7.79v16.66h-3.47v-4.19c-.82,1.4-2.02,2.49-3.6,3.27-1.58,.78-3.47,1.18-5.65,1.18-3,0-5.38-.72-7.15-2.15-1.77-1.43-2.66-3.32-2.66-5.67s.83-4.12,2.48-5.52c1.65-1.4,4.28-2.09,7.89-2.09h8.53v-1.64c0-2.32-.65-4.08-1.94-5.29-1.29-1.21-3.19-1.81-5.67-1.81-1.7,0-3.34,.28-4.91,.84-1.57,.56-2.91,1.34-4.04,2.33l-1.63-2.71c1.36-1.16,3-2.05,4.91-2.68,1.91-.63,3.92-.95,6.03-.95,3.51,0,6.2,.88,8.07,2.63Zm-4.09,20.44c1.46-.94,2.55-2.29,3.27-4.06v-4.39h-8.43c-4.6,0-6.9,1.6-6.9,4.8,0,1.57,.6,2.8,1.79,3.7,1.19,.9,2.86,1.35,5.01,1.35s3.8-.47,5.26-1.4Z"/></g></svg>